<svg version="1.1" id="Layer_1" xmlns="http://www.w3.org/2000/svg" xmlns:xlink="http://www.w3.org/1999/xlink" x="0px" y="0px"
	 width="100%" viewBox="0 0 397 404" enable-background="new 0 0 397 404" xml:space="preserve">
<path fill="#F0F0F0" opacity="1.000000" stroke="none" 
	d="
M212.000000,405.000000 
	C141.355225,405.000000 71.210457,405.000000 1.032841,405.000000 
	C1.032841,270.397247 1.032841,135.794495 1.032841,1.095871 
	C133.228073,1.095871 265.456238,1.095871 397.842194,1.095871 
	C397.842194,135.666519 397.842194,270.333252 397.842194,405.000000 
	C336.127899,405.000000 274.313934,405.000000 212.000000,405.000000 
M73.589714,341.103394 
	C86.873489,328.458130 93.556900,312.302368 98.055656,295.001953 
	C103.247360,275.036774 104.494492,254.608261 104.604538,234.122116 
	C104.810394,195.800201 104.664955,157.476395 104.665665,119.153381 
	C104.665703,117.243172 104.665680,115.332962 104.665680,113.095016 
	C107.291512,113.095016 109.100151,113.095024 110.908783,113.095032 
	C152.730865,113.095139 194.553879,113.262093 236.374664,113.029915 
	C259.766724,112.900047 282.899780,110.377014 305.024445,102.118065 
	C320.952393,96.172295 335.132843,87.677902 343.638763,72.232712 
	C346.086487,67.788040 347.231232,62.625813 349.129852,57.358517 
	C248.115479,57.358517 148.571716,57.358517 49.199707,57.358517 
	C49.199707,156.069229 49.199707,254.420456 49.199707,352.929321 
	C58.718292,351.770081 66.255127,347.435608 73.589714,341.103394 
M142.345856,214.499939 
	C142.195618,240.321152 141.996368,266.155151 147.972626,291.517944 
	C152.023544,308.709839 158.042480,325.040955 170.404419,338.217651 
	C177.825607,346.127960 186.639206,351.662872 198.408600,352.959381 
	C198.408600,316.170074 198.408600,279.825012 198.408600,243.479996 
	C198.785370,243.301575 199.162140,243.123169 199.538910,242.944763 
	C234.582489,277.993469 269.626068,313.042175 305.300507,348.721802 
	C306.700653,344.791809 308.195953,341.479950 309.064362,338.011169 
	C314.042389,318.126556 309.695618,299.370453 301.507080,281.272217 
	C289.559906,254.866699 271.044434,233.337036 250.331772,213.512009 
	C246.822159,210.152786 243.208618,206.902130 238.804306,202.824829 
	C276.035461,202.824829 311.993896,202.824829 349.286804,202.824829 
	C347.296844,197.359665 346.080231,192.328735 343.734558,187.895233 
	C336.883270,174.946014 325.507996,166.911728 312.540375,160.975174 
	C290.641144,150.949707 267.226532,147.625183 243.513611,147.153305 
	C211.028000,146.506851 178.520966,146.934753 146.023102,146.921875 
	C144.920349,146.921432 143.817505,147.133209 142.346054,147.283783 
	C142.346054,169.561905 142.346054,191.530914 142.345856,214.499939 
z"/>
<path fill="#0180C9" opacity="1.000000" stroke="none" 
	d="
M73.333092,341.350403 
	C66.255127,347.435608 58.718292,351.770081 49.199707,352.929321 
	C49.199707,254.420456 49.199707,156.069229 49.199707,57.358517 
	C148.571716,57.358517 248.115479,57.358517 349.129852,57.358517 
	C347.231232,62.625813 346.086487,67.788040 343.638763,72.232712 
	C335.132843,87.677902 320.952393,96.172295 305.024445,102.118065 
	C282.899780,110.377014 259.766724,112.900047 236.374664,113.029915 
	C194.553879,113.262093 152.730865,113.095139 110.908783,113.095032 
	C109.100151,113.095024 107.291512,113.095016 104.665680,113.095016 
	C104.665680,115.332962 104.665703,117.243172 104.665665,119.153381 
	C104.664955,157.476395 104.810394,195.800201 104.604538,234.122116 
	C104.494492,254.608261 103.247360,275.036774 98.055656,295.001953 
	C93.556900,312.302368 86.873489,328.458130 73.333092,341.350403 
z"/>
<path fill="#EF7D01" opacity="1.000000" stroke="none" 
	d="
M142.345947,213.999939 
	C142.346054,191.530914 142.346054,169.561905 142.346054,147.283783 
	C143.817505,147.133209 144.920349,146.921432 146.023102,146.921875 
	C178.520966,146.934753 211.028000,146.506851 243.513611,147.153305 
	C267.226532,147.625183 290.641144,150.949707 312.540375,160.975174 
	C325.507996,166.911728 336.883270,174.946014 343.734558,187.895233 
	C346.080231,192.328735 347.296844,197.359665 349.286804,202.824829 
	C311.993896,202.824829 276.035461,202.824829 238.804306,202.824829 
	C243.208618,206.902130 246.822159,210.152786 250.331772,213.512009 
	C271.044434,233.337036 289.559906,254.866699 301.507080,281.272217 
	C309.695618,299.370453 314.042389,318.126556 309.064362,338.011169 
	C308.195953,341.479950 306.700653,344.791809 305.300507,348.721802 
	C269.626068,313.042175 234.582489,277.993469 199.538910,242.944763 
	C199.162140,243.123169 198.785370,243.301575 198.408600,243.479996 
	C198.408600,279.825012 198.408600,316.170074 198.408600,352.959381 
	C186.639206,351.662872 177.825607,346.127960 170.404419,338.217651 
	C158.042480,325.040955 152.023544,308.709839 147.972626,291.517944 
	C141.996368,266.155151 142.195618,240.321152 142.345947,213.999939 
z"/>
</svg>