<svg version="1.1" id="Layer_1" xmlns="http://www.w3.org/2000/svg" xmlns:xlink="http://www.w3.org/1999/xlink" x="0px" y="0px"
	 width="100%" viewBox="0 0 398 403" enable-background="new 0 0 398 403" xml:space="preserve">
<path fill="#40414F" opacity="1.000000" stroke="none" 
	d="
M259.000000,404.000000 
	C172.666672,404.000000 86.833336,404.000000 1.000000,404.000000 
	C1.000000,269.666656 1.000000,135.333328 1.000000,1.000000 
	C133.666672,1.000000 266.333344,1.000000 399.000000,1.000000 
	C399.000000,135.333328 399.000000,269.666656 399.000000,404.000000 
	C352.500000,404.000000 306.000000,404.000000 259.000000,404.000000 
M203.500000,349.000000 
	C252.221924,349.000000 300.943848,349.000000 349.771515,349.000000 
	C349.771515,249.882950 349.771515,151.769547 349.771515,52.840496 
	C344.625977,54.751400 339.190338,55.525745 335.414795,58.446224 
	C328.745117,63.605366 322.675537,69.711914 317.103668,76.077415 
	C309.246735,85.053520 306.096863,96.351532 302.472198,107.539001 
	C297.310120,123.471619 295.634583,139.951035 295.301025,156.267029 
	C294.415680,199.573456 295.004425,242.909958 294.988373,286.234497 
	C294.987610,288.332886 294.810913,290.431213 294.694946,292.999817 
	C292.041595,292.999817 289.904633,292.999847 287.767639,292.999847 
	C250.108612,292.999908 212.449188,293.100739 174.790695,292.959259 
	C154.701813,292.883759 134.721527,293.899902 115.035355,298.069611 
	C93.326279,302.667816 73.021263,310.146667 58.933491,328.674286 
	C54.571190,334.411377 51.036797,340.722687 51.207073,349.000000 
	C101.930267,349.000000 152.215134,349.000000 203.500000,349.000000 
M200.999939,146.496567 
	C200.999939,151.897858 200.999939,157.299164 200.999939,163.321732 
	C165.282242,127.599022 130.253601,92.565460 94.515793,56.822628 
	C92.936287,60.372364 91.764748,62.521606 90.997604,64.806618 
	C85.379288,81.541229 87.790253,98.183365 93.299774,114.173927 
	C101.461456,137.862015 116.003876,157.832596 132.766846,176.210342 
	C141.112656,185.360107 149.615341,194.366806 157.615326,202.973724 
	C123.209282,202.973724 87.337151,202.973724 50.804886,202.973724 
	C51.153809,205.491119 50.979279,207.581848 51.755592,209.222733 
	C54.385136,214.780716 56.470139,220.928665 60.355038,225.497711 
	C71.747322,238.896194 86.903320,246.585052 103.732796,250.933701 
	C110.830070,252.767593 118.100014,254.009125 125.348167,255.164200 
	C134.557159,256.631775 143.810547,258.698792 153.067932,258.826263 
	C185.559647,259.273499 218.061295,259.003357 250.559174,258.989166 
	C252.308212,258.988403 254.057190,258.837769 255.999847,258.747955 
	C255.999847,256.123840 255.999863,254.129425 255.999863,252.134995 
	C255.999924,224.470139 256.318817,196.800049 255.866653,169.142593 
	C255.637695,155.137817 254.479568,141.103424 252.905334,127.176964 
	C250.989746,110.230667 246.050613,94.090752 237.076660,79.399948 
	C228.778488,65.815483 217.748978,55.952469 200.999939,53.202354 
	C200.999939,84.198929 200.999939,114.848274 200.999939,146.496567 
z"/>
<path fill="#0080C9" opacity="1.000000" stroke="none" 
	d="
M203.000000,349.000000 
	C152.215134,349.000000 101.930267,349.000000 51.207073,349.000000 
	C51.036797,340.722687 54.571190,334.411377 58.933491,328.674286 
	C73.021263,310.146667 93.326279,302.667816 115.035355,298.069611 
	C134.721527,293.899902 154.701813,292.883759 174.790695,292.959259 
	C212.449188,293.100739 250.108612,292.999908 287.767639,292.999847 
	C289.904633,292.999847 292.041595,292.999817 294.694946,292.999817 
	C294.810913,290.431213 294.987610,288.332886 294.988373,286.234497 
	C295.004425,242.909958 294.415680,199.573456 295.301025,156.267029 
	C295.634583,139.951035 297.310120,123.471619 302.472198,107.539001 
	C306.096863,96.351532 309.246735,85.053520 317.103668,76.077415 
	C322.675537,69.711914 328.745117,63.605366 335.414795,58.446224 
	C339.190338,55.525745 344.625977,54.751400 349.771515,52.840496 
	C349.771515,151.769547 349.771515,249.882950 349.771515,349.000000 
	C300.943848,349.000000 252.221924,349.000000 203.000000,349.000000 
z"/>
<path fill="#EF7D00" opacity="1.000000" stroke="none" 
	d="
M200.999939,145.997101 
	C200.999939,114.848274 200.999939,84.198929 200.999939,53.202354 
	C217.748978,55.952469 228.778488,65.815483 237.076660,79.399948 
	C246.050613,94.090752 250.989746,110.230667 252.905334,127.176964 
	C254.479568,141.103424 255.637695,155.137817 255.866653,169.142593 
	C256.318817,196.800049 255.999924,224.470139 255.999863,252.134995 
	C255.999863,254.129425 255.999847,256.123840 255.999847,258.747955 
	C254.057190,258.837769 252.308212,258.988403 250.559174,258.989166 
	C218.061295,259.003357 185.559647,259.273499 153.067932,258.826263 
	C143.810547,258.698792 134.557159,256.631775 125.348167,255.164200 
	C118.100014,254.009125 110.830070,252.767593 103.732796,250.933701 
	C86.903320,246.585052 71.747322,238.896194 60.355038,225.497711 
	C56.470139,220.928665 54.385136,214.780716 51.755592,209.222733 
	C50.979279,207.581848 51.153809,205.491119 50.804886,202.973724 
	C87.337151,202.973724 123.209282,202.973724 157.615326,202.973724 
	C149.615341,194.366806 141.112656,185.360107 132.766846,176.210342 
	C116.003876,157.832596 101.461456,137.862015 93.299774,114.173927 
	C87.790253,98.183365 85.379288,81.541229 90.997604,64.806618 
	C91.764748,62.521606 92.936287,60.372364 94.515793,56.822628 
	C130.253601,92.565460 165.282242,127.599022 200.999939,163.321732 
	C200.999939,157.299164 200.999939,151.897858 200.999939,145.997101 
z"/>
</svg>